<?xml version="1.0" encoding="UTF-8" standalone="no"?>
<svg width="224px" height="41px" viewBox="0 0 224 41" version="1.1" xmlns="http://www.w3.org/2000/svg" xmlns:xlink="http://www.w3.org/1999/xlink" xmlns:sketch="http://www.bohemiancoding.com/sketch/ns">
    <!-- Generator: Sketch 3.3.2 (12043) - http://www.bohemiancoding.com/sketch -->
    <title>envato</title>
    <desc>Created with Sketch.</desc>
    <defs></defs>
    <g id="Exporting" stroke="none" stroke-width="1" fill="none" fill-rule="evenodd" sketch:type="MSPage">
        <g id="Companies" sketch:type="MSLayerGroup" transform="translate(-41.000000, -106.000000)" fill="#6B93A2">
            <path d="M84.4315909,122.295682 C85.7891332,119.798368 87.7078356,117.817406 90.1877554,116.352737 C92.6676753,114.888068 95.436165,114.155744 98.4933075,114.155744 C102.149051,114.155744 105.275628,115.156762 107.87313,117.158828 C110.470632,119.160894 112.261065,121.868911 113.244481,125.282961 C113.778947,127.074283 114.046175,128.465171 114.046175,129.455667 C114.046175,130.361865 113.709467,131.146874 113.036041,131.810717 C112.362614,132.47456 111.555583,132.806476 110.614924,132.806476 L89.7388066,132.806476 C89.9739715,135.251104 90.9840961,137.295289 92.7692108,138.93909 C94.5543255,140.582892 96.8685264,141.40478 99.7118828,141.40478 C104.566832,141.273157 105.761254,139.045558 107.963251,137.675724 C108.412202,137.422831 108.893214,137.296387 109.406301,137.296387 C110.154553,137.296387 110.833314,137.57035 111.442604,138.118284 C112.051895,138.666217 112.356536,139.340587 112.356536,140.141414 C112.356536,140.984389 111.918281,141.753592 111.041757,142.449047 C110.165234,143.144501 109.058255,144.223101 107.537524,144.971147 C106.016793,145.719193 103.982247,146.473142 102.646084,146.683886 C101.30992,146.89463 100.096701,147 99.0063918,147 C94.1962025,147 90.2251835,145.477399 87.0932157,142.432151 C83.961248,139.386903 82.3952876,135.419711 82.3952876,130.530455 C82.3952876,127.537893 83.0740486,124.792996 84.4315909,122.295682 Z M89.3349739,128.033153 L106.940179,128.033153 C106.897422,127.063732 106.705017,126.115399 106.362959,125.188126 C106.020901,124.260854 105.513167,123.375743 104.83974,122.532768 C104.166314,121.689793 103.252391,121.010154 102.097946,120.493832 C100.9435,119.97751 99.6287351,119.719352 98.1536103,119.719352 C95.5026615,119.719352 93.4182774,120.567583 91.9003954,122.264071 C90.3825134,123.960558 89.5273815,125.883567 89.3349739,128.033153 L89.3349739,128.033153 Z M118.021252,117.917502 C118.021252,116.990229 118.363305,116.199952 119.04742,115.546646 C119.731536,114.89334 120.597357,114.566692 121.64491,114.566692 C122.56419,114.566692 123.360532,114.898609 124.033958,115.562452 C124.707385,116.226295 125.044093,117.011304 125.044093,117.917502 L125.044093,119.21357 C126.241296,117.801586 127.817945,116.605633 129.774089,115.625675 C131.730233,114.645716 133.884096,114.155744 136.235745,114.155744 C139.613566,114.155744 142.162929,115.025049 143.883907,116.763685 C145.604886,118.502322 146.465363,120.983793 146.465363,124.208173 L146.465363,143.175019 C146.465363,144.102292 146.117965,144.903106 145.42316,145.577487 C144.728355,146.251867 143.889257,146.589052 142.90584,146.589052 C141.943803,146.589052 141.126083,146.257135 140.452656,145.593292 C139.77923,144.929449 139.442521,144.123366 139.442521,143.175019 L139.442521,126.737086 C139.442521,124.439978 138.89203,122.796201 137.791031,121.805705 C136.690032,120.81521 135.113383,120.319969 133.061035,120.319969 C131.414882,120.319969 129.8703,120.720376 128.427243,121.521203 C126.984186,122.322029 125.856481,124.08332 125.044093,125.242411 L125.044093,143.175019 C125.044093,144.102292 124.70204,144.903106 124.017925,145.577487 C123.333809,146.251867 122.500055,146.589052 121.516639,146.589052 C120.533222,146.589052 119.704813,146.251867 119.031387,145.577487 C118.35796,144.903106 118.021252,144.102292 118.021252,143.175019 L118.021252,117.917502 Z M149.673356,115.64148 C150.346783,114.9671 151.19657,114.629915 152.222744,114.629915 C152.949617,114.629915 153.601655,114.814313 154.178878,115.183115 C154.7561,115.551917 155.172977,116.052426 155.429521,116.684657 L163.895411,138.180416 L172.297167,116.74788 C172.55371,116.094574 172.981276,115.578259 173.579878,115.198921 C174.178479,114.819582 174.830517,114.629915 175.536012,114.629915 C176.583564,114.629915 177.44404,114.9671 178.117467,115.64148 C178.790893,116.31586 179.127602,117.116675 179.127602,118.043948 C179.127602,118.48651 179.042088,118.87638 178.87106,119.21357 L168.897983,143.364688 C168.470411,144.334109 167.807684,145.11385 166.909782,145.703932 C166.01188,146.294015 165.028478,146.589052 163.959547,146.589052 L163.831276,146.589052 C162.740966,146.589052 161.746875,146.294015 160.848973,145.703932 C159.951071,145.11385 159.299033,144.334109 158.89284,143.364688 L148.919763,119.21357 C148.748734,118.87638 148.663221,118.465435 148.663221,117.980725 C148.663221,117.095601 148.999929,116.31586 149.673356,115.64148 Z M213.538308,109.445644 C213.538308,108.497297 213.89105,107.685945 214.596544,107.011565 C215.302039,106.337185 216.157171,106 217.161966,106 C218.102625,106 218.904311,106.337185 219.567049,107.011565 C220.229786,107.685945 220.561149,108.497297 220.561149,109.445644 L220.561149,114.946029 L226.026603,114.946029 C226.838991,114.946029 227.533785,115.246335 228.111008,115.846955 C228.688231,116.447574 228.976838,117.179898 228.976838,118.043948 C228.976838,118.844774 228.688231,119.540218 228.111008,120.130301 C227.533785,120.720383 226.838991,121.01542 226.026603,121.01542 L220.561149,121.01542 L220.561149,137.13724 C220.561149,138.296331 220.855101,139.202515 221.443013,139.855821 C222.030925,140.509127 222.752443,140.835775 223.607587,140.835775 C223.757238,140.835775 224.003088,140.804164 224.345146,140.740941 C224.687204,140.677717 224.922365,140.646106 225.050637,140.646106 C225.969918,140.646106 227.278976,140.925338 227.845509,141.483809 C228.412042,142.04228 228.695305,142.753529 228.695305,143.617579 C228.695305,145.872538 226.002002,147 221.747657,147 C219.053951,147 217.012323,146.309824 215.622713,144.929453 C214.233103,143.549081 213.538308,141.541776 213.538308,138.907479 L213.538308,109.445644 Z M230.59239,130.530455 C230.59239,127.516819 231.272664,124.782459 232.633233,122.327294 C233.993803,119.872129 235.995271,117.896435 238.637699,116.400154 C241.280126,114.903873 244.332928,114.155744 247.796195,114.155744 C251.259462,114.155744 254.312263,114.903873 256.954691,116.400154 C259.597119,117.896435 261.598587,119.872129 262.959156,122.327294 C264.319726,124.782459 265,127.516819 265,130.530455 C265,133.565166 264.319726,136.320599 262.959156,138.796839 C261.598587,141.273078 259.597119,143.259309 256.954691,144.75559 C254.312263,146.251871 251.259462,147 247.796195,147 C244.332928,147 241.280126,146.251871 238.637699,144.75559 C235.995271,143.259309 233.993803,141.273078 232.633233,138.796839 C231.272664,136.320599 230.59239,133.565166 230.59239,130.530455 L230.59239,130.530455 Z M202.488165,142.289747 C202.557237,144.275518 202.673236,145.663101 202.860405,145.798766 C203.587278,146.325626 204.282072,146.589052 204.944809,146.589052 L205.329623,146.589052 C206.270282,146.589052 207.088002,146.251867 207.782807,145.577487 C208.477612,144.903106 208.82501,144.102292 208.82501,143.175019 L208.82501,125.504241 C208.82501,123.4811 208.466923,121.716147 207.750739,120.209329 C207.034555,118.702511 206.051154,117.522364 204.800505,116.668851 C203.549855,115.815339 202.154921,115.183117 200.615661,114.772167 C199.0764,114.361216 197.387514,114.155744 195.548953,114.155744 C193.261441,114.155744 190.920517,114.535077 188.526112,115.293755 C186.131706,116.052432 184.357308,117.148284 183.202862,118.581342 C182.839426,119.002829 182.65771,119.49807 182.65771,120.067078 C182.65771,120.867904 182.940973,121.5212 183.507506,122.026985 C184.074039,122.53277 184.710044,122.785659 185.415538,122.785659 C185.907247,122.785659 186.388258,122.627604 186.858588,122.311488 C189.039207,120.73091 191.561846,119.940632 194.426581,119.940632 C196.628579,119.940632 198.402978,120.456947 199.749831,121.489591 C201.096684,122.522236 202.480014,124.093709 202.480014,125.863957 C202.480014,125.863957 202.472601,126.279231 202.462217,126.989937 L202.409244,126.830012 C202.409244,126.830012 184.578459,126.199964 181.568235,132.856619 C178.558012,139.513273 182.041788,145.95873 190.210223,146.569431 C196.924043,147.071379 201.183901,143.557242 202.488165,142.289747 L202.488165,142.289747 Z M237.305611,130.527875 C237.305611,133.572149 238.245364,136.144189 240.124896,138.244072 C242.004428,140.343954 244.564017,141.39388 247.803737,141.39388 C251.018727,141.39388 253.553585,140.343954 255.408386,138.244072 C257.263188,136.144189 258.190575,133.572149 258.190575,130.527875 C258.190575,127.505822 257.263188,124.956003 255.408386,122.878341 C253.553585,120.800679 251.018727,119.761864 247.803737,119.761864 C244.564017,119.761864 242.004428,120.800679 240.124896,122.878341 C238.245364,124.956003 237.305611,127.505822 237.305611,130.527875 Z M202.560737,131.633584 C202.560737,131.633584 186.867711,130.370763 187.37803,137.075925 C187.88835,143.781086 202.560737,143.792805 202.560737,131.633584 Z M46.6656193,130.937508 C47.0774804,131.801391 47.824828,132.39734 47.824828,132.39734 C48.2716736,132.822567 48.6209344,132.672074 48.609777,132.040783 C48.609777,132.040783 48.5718746,131.208436 48.6339137,130.568641 C49.901012,117.501327 60.8408536,111.618734 60.8408536,111.618734 C61.3591771,111.302331 62.265276,110.925866 62.8688747,110.782029 C62.8688747,110.782029 67.8777663,109.495241 69.3318738,109.830703 C70.7859812,110.166166 74.7167709,116.329301 74.7167709,128.745228 C74.7167709,141.161154 66.0655464,146.117825 57.9041373,146.751741 C49.7427283,147.385658 41,139.38165 41,130.943038 C41,122.504427 45.4000324,120.254603 45.4000324,120.254603 C45.8964756,119.900145 46.2335391,120.104345 46.1603378,120.723814 C46.1603378,120.723814 45.1160566,127.687286 46.6656193,130.937508 Z" id="envato" sketch:type="MSShapeGroup"></path>
        </g>
    </g>
</svg>