<?xml version="1.0" encoding="UTF-8" standalone="no"?>
<svg width="306px" height="55px" viewBox="0 0 306 55" version="1.1" xmlns="http://www.w3.org/2000/svg" xmlns:xlink="http://www.w3.org/1999/xlink" xmlns:sketch="http://www.bohemiancoding.com/sketch/ns">
    <!-- Generator: Sketch 3.3.2 (12043) - http://www.bohemiancoding.com/sketch -->
    <title>bohemian</title>
    <desc>Created with Sketch.</desc>
    <defs></defs>
    <g id="Exporting" stroke="none" stroke-width="1" fill="none" fill-rule="evenodd" sketch:type="MSPage">
        <g id="Companies" sketch:type="MSLayerGroup" fill="#6B93A2">
            <path d="M27.0035543,55 L49,42.3314184 L49,14.1104728 L24.5,0 L-8.8817842e-16,14.1104728 L1.46549439e-14,42.3314184 L21.9964457,55 L21.9964457,35.2869067 C19.0793234,34.2583746 16.9893372,31.4831341 16.9893372,28.2209456 C16.9893372,24.0830701 20.3519755,20.7286592 24.5,20.7286592 C28.6480245,20.7286592 32.0106628,24.0830701 32.0106628,28.2209456 C32.0106628,31.4831341 29.9206766,34.2583746 27.0035543,35.2869067 L27.0035543,55 Z M67.73,16.76 L75.11,16.76 C76.0300046,16.76 76.884996,16.8699989 77.675,17.09 C78.4650039,17.3100011 79.1449971,17.6349979 79.715,18.065 C80.2850028,18.4950022 80.7349983,19.0449967 81.065,19.715 C81.3950016,20.3850034 81.56,21.1699955 81.56,22.07 C81.56,23.2900061 81.2200034,24.2849962 80.54,25.055 C79.8599966,25.8250039 78.9800054,26.3899982 77.9,26.75 L77.9,26.81 C78.5400032,26.8500002 79.1399972,27.0149986 79.7,27.305 C80.2600028,27.5950015 80.7449979,27.9749977 81.155,28.445 C81.5650021,28.9150024 81.8899988,29.4599969 82.13,30.08 C82.3700012,30.7000031 82.49,31.3699964 82.49,32.09 C82.49,33.0500048 82.2950019,33.8949964 81.905,34.625 C81.5149981,35.3550037 80.9800034,35.9699975 80.3,36.47 C79.6199966,36.9700025 78.8300045,37.3499987 77.93,37.61 C77.0299955,37.8700013 76.0600052,38 75.02,38 L67.73,38 L67.73,16.76 Z M70.61,25.58 L74.54,25.58 C75.0800027,25.58 75.5899976,25.5250006 76.07,25.415 C76.5500024,25.3049995 76.9699982,25.1200013 77.33,24.86 C77.6900018,24.5999987 77.974999,24.270002 78.185,23.87 C78.3950011,23.469998 78.5,22.9800029 78.5,22.4 C78.5,21.5599958 78.2300027,20.8300031 77.69,20.21 C77.1499973,19.5899969 76.3000058,19.28 75.14,19.28 L70.61,19.28 L70.61,25.58 Z M70.61,35.48 L74.84,35.48 C75.2800022,35.48 75.7649974,35.4350005 76.295,35.345 C76.8250027,35.2549996 77.3199977,35.0750014 77.78,34.805 C78.2400023,34.5349987 78.6299984,34.1700023 78.95,33.71 C79.2700016,33.2499977 79.43,32.6400038 79.43,31.88 C79.43,30.6199937 79.0200041,29.6750032 78.2,29.045 C77.3799959,28.4149969 76.270007,28.1 74.87,28.1 L70.61,28.1 L70.61,35.48 Z M88.13,30.89 C88.13,31.6100036 88.2399989,32.274997 88.46,32.885 C88.6800011,33.4950031 88.989998,34.0149979 89.39,34.445 C89.790002,34.8750022 90.2799971,35.2149988 90.86,35.465 C91.4400029,35.7150013 92.0899964,35.84 92.81,35.84 C93.5300036,35.84 94.1799971,35.7150013 94.76,35.465 C95.3400029,35.2149988 95.829998,34.8750022 96.23,34.445 C96.630002,34.0149979 96.9399989,33.4950031 97.16,32.885 C97.3800011,32.274997 97.49,31.6100036 97.49,30.89 C97.49,30.1699964 97.3800011,29.5050031 97.16,28.895 C96.9399989,28.284997 96.630002,27.7650022 96.23,27.335 C95.829998,26.9049979 95.3400029,26.5650013 94.76,26.315 C94.1799971,26.0649988 93.5300036,25.94 92.81,25.94 C92.0899964,25.94 91.4400029,26.0649988 90.86,26.315 C90.2799971,26.5650013 89.790002,26.9049979 89.39,27.335 C88.989998,27.7650022 88.6800011,28.284997 88.46,28.895 C88.2399989,29.5050031 88.13,30.1699964 88.13,30.89 L88.13,30.89 Z M85.25,30.89 C85.25,29.8499948 85.444998,28.8800045 85.835,27.98 C86.2250019,27.0799955 86.7599966,26.2900034 87.44,25.61 C88.1200034,24.9299966 88.9199954,24.395002 89.84,24.005 C90.7600046,23.6149981 91.7499947,23.42 92.81,23.42 C93.8700053,23.42 94.8599954,23.6149981 95.78,24.005 C96.7000046,24.395002 97.4999966,24.9299966 98.18,25.61 C98.8600034,26.2900034 99.394998,27.0799955 99.785,27.98 C100.175002,28.8800045 100.37,29.8499948 100.37,30.89 C100.37,31.9300052 100.175002,32.9049955 99.785,33.815 C99.394998,34.7250046 98.8600034,35.5149967 98.18,36.185 C97.4999966,36.8550034 96.7000046,37.3849981 95.78,37.775 C94.8599954,38.165002 93.8700053,38.36 92.81,38.36 C91.7499947,38.36 90.7600046,38.165002 89.84,37.775 C88.9199954,37.3849981 88.1200034,36.8550034 87.44,36.185 C86.7599966,35.5149967 86.2250019,34.7250046 85.835,33.815 C85.444998,32.9049955 85.25,31.9300052 85.25,30.89 L85.25,30.89 Z M103.76,15.32 L106.46,15.32 L106.46,25.97 L106.52,25.97 C106.860002,25.2099962 107.449996,24.5950024 108.29,24.125 C109.130004,23.6549977 110.099994,23.42 111.2,23.42 C111.880003,23.42 112.534997,23.524999 113.165,23.735 C113.795003,23.9450011 114.344998,24.2699978 114.815,24.71 C115.285002,25.1500022 115.659999,25.7149966 115.94,26.405 C116.220001,27.0950035 116.36,27.9099953 116.36,28.85 L116.36,38 L113.66,38 L113.66,29.6 C113.66,28.9399967 113.570001,28.3750024 113.39,27.905 C113.209999,27.4349977 112.970001,27.0550015 112.67,26.765 C112.369998,26.4749986 112.025002,26.2650007 111.635,26.135 C111.244998,26.0049994 110.840002,25.94 110.42,25.94 C109.859997,25.94 109.340002,26.0299991 108.86,26.21 C108.379998,26.3900009 107.960002,26.6749981 107.6,27.065 C107.239998,27.455002 106.960001,27.949997 106.76,28.55 C106.559999,29.150003 106.46,29.8599959 106.46,30.68 L106.46,38 L103.76,38 L103.76,15.32 Z M122.48,31.88 C122.48,32.5000031 122.614999,33.0649975 122.885,33.575 C123.155001,34.0850026 123.509998,34.5199982 123.95,34.88 C124.390002,35.2400018 124.899997,35.519999 125.48,35.72 C126.060003,35.920001 126.659997,36.02 127.28,36.02 C128.120004,36.02 128.849997,35.825002 129.47,35.435 C130.090003,35.0449981 130.659997,34.5300032 131.18,33.89 L133.22,35.45 C131.719992,37.3900097 129.620013,38.36 126.92,38.36 C125.799994,38.36 124.785005,38.1700019 123.875,37.79 C122.964995,37.4099981 122.195003,36.8850034 121.565,36.215 C120.934997,35.5449967 120.450002,34.7550046 120.11,33.845 C119.769998,32.9349955 119.6,31.9500053 119.6,30.89 C119.6,29.8299947 119.784998,28.8450046 120.155,27.935 C120.525002,27.0249955 121.034997,26.2350034 121.685,25.565 C122.335003,24.8949967 123.109995,24.3700019 124.01,23.99 C124.910004,23.6099981 125.889995,23.42 126.95,23.42 C128.210006,23.42 129.274996,23.6399978 130.145,24.08 C131.015004,24.5200022 131.729997,25.0949965 132.29,25.805 C132.850003,26.5150036 133.254999,27.3149956 133.505,28.205 C133.755001,29.0950045 133.88,29.9999954 133.88,30.92 L133.88,31.88 L122.48,31.88 Z M131,29.72 C130.98,29.119997 130.885001,28.5700025 130.715,28.07 C130.544999,27.5699975 130.290002,27.1350019 129.95,26.765 C129.609998,26.3949982 129.185003,26.1050011 128.675,25.895 C128.164997,25.684999 127.570003,25.58 126.89,25.58 C126.229997,25.58 125.625003,25.7049988 125.075,25.955 C124.524997,26.2050013 124.060002,26.529998 123.68,26.93 C123.299998,27.330002 123.005001,27.7749976 122.795,28.265 C122.584999,28.7550025 122.48,29.2399976 122.48,29.72 L131,29.72 Z M137.12,23.78 L139.64,23.78 L139.64,26 L139.7,26 C139.76,25.799999 139.914999,25.5500015 140.165,25.25 C140.415001,24.9499985 140.734998,24.6650014 141.125,24.395 C141.515002,24.1249987 141.974997,23.895001 142.505,23.705 C143.035003,23.5149991 143.619997,23.42 144.26,23.42 C145.320005,23.42 146.209996,23.6399978 146.93,24.08 C147.650004,24.5200022 148.239998,25.1799956 148.7,26.06 C149.160002,25.1799956 149.809996,24.5200022 150.65,24.08 C151.490004,23.6399978 152.339996,23.42 153.2,23.42 C154.300005,23.42 155.199996,23.5999982 155.9,23.96 C156.600003,24.3200018 157.149998,24.7949971 157.55,25.385 C157.950002,25.975003 158.224999,26.6449963 158.375,27.395 C158.525001,28.1450038 158.6,28.919996 158.6,29.72 L158.6,38 L155.9,38 L155.9,30.08 C155.9,29.5399973 155.865,29.0200025 155.795,28.52 C155.725,28.0199975 155.580001,27.5800019 155.36,27.2 C155.139999,26.8199981 154.830002,26.5150012 154.43,26.285 C154.029998,26.0549989 153.500003,25.94 152.84,25.94 C151.539994,25.94 150.610003,26.339996 150.05,27.14 C149.489997,27.940004 149.21,28.9699937 149.21,30.23 L149.21,38 L146.51,38 L146.51,30.56 C146.51,29.8799966 146.475,29.2600028 146.405,28.7 C146.335,28.1399972 146.195001,27.6550021 145.985,27.245 C145.774999,26.834998 145.475002,26.5150012 145.085,26.285 C144.694998,26.0549989 144.170003,25.94 143.51,25.94 C143.029998,25.94 142.565002,26.0349991 142.115,26.225 C141.664998,26.415001 141.270002,26.6999981 140.93,27.08 C140.589998,27.4600019 140.320001,27.9449971 140.12,28.535 C139.919999,29.125003 139.82,29.819996 139.82,30.62 L139.82,38 L137.12,38 L137.12,23.78 Z M162.89,23.78 L165.59,23.78 L165.59,38 L162.89,38 L162.89,23.78 Z M162.26,18.68 C162.26,18.1399973 162.454998,17.675002 162.845,17.285 C163.235002,16.8949981 163.699997,16.7 164.24,16.7 C164.780003,16.7 165.244998,16.8949981 165.635,17.285 C166.025002,17.675002 166.22,18.1399973 166.22,18.68 C166.22,19.2200027 166.025002,19.6849981 165.635,20.075 C165.244998,20.465002 164.780003,20.66 164.24,20.66 C163.699997,20.66 163.235002,20.465002 162.845,20.075 C162.454998,19.6849981 162.26,19.2200027 162.26,18.68 L162.26,18.68 Z M169.94,25.52 C170.700004,24.8199965 171.579995,24.2950018 172.58,23.945 C173.580005,23.5949983 174.579995,23.42 175.58,23.42 C176.620005,23.42 177.514996,23.5499987 178.265,23.81 C179.015004,24.0700013 179.629998,24.4199978 180.11,24.86 C180.590002,25.3000022 180.944999,25.8049972 181.175,26.375 C181.405001,26.9450029 181.52,27.5399969 181.52,28.16 L181.52,35.42 C181.52,35.9200025 181.53,36.3799979 181.55,36.8 C181.57,37.2200021 181.6,37.6199981 181.64,38 L179.24,38 C179.18,37.2799964 179.15,36.5600036 179.15,35.84 L179.09,35.84 C178.489997,36.7600046 177.780004,37.4099981 176.96,37.79 C176.139996,38.1700019 175.190005,38.36 174.11,38.36 C173.449997,38.36 172.820003,38.2700009 172.22,38.09 C171.619997,37.9099991 171.095002,37.6400018 170.645,37.28 C170.194998,36.9199982 169.840001,36.4750027 169.58,35.945 C169.319999,35.4149974 169.19,34.8000035 169.19,34.1 C169.19,33.1799954 169.394998,32.4100031 169.805,31.79 C170.215002,31.1699969 170.774996,30.665002 171.485,30.275 C172.195004,29.8849981 173.024995,29.6050009 173.975,29.435 C174.925005,29.2649992 175.939995,29.18 177.02,29.18 L179,29.18 L179,28.58 C179,28.2199982 178.930001,27.8600018 178.79,27.5 C178.649999,27.1399982 178.440001,26.8150015 178.16,26.525 C177.879999,26.2349986 177.530002,26.0050009 177.11,25.835 C176.689998,25.6649992 176.190003,25.58 175.61,25.58 C175.089997,25.58 174.635002,25.6299995 174.245,25.73 C173.854998,25.8300005 173.500002,25.9549993 173.18,26.105 C172.859998,26.2550008 172.570001,26.429999 172.31,26.63 C172.049999,26.830001 171.800001,27.0199991 171.56,27.2 L169.94,25.52 Z M177.56,31.16 C176.919997,31.16 176.265003,31.1949997 175.595,31.265 C174.924997,31.3350004 174.315003,31.469999 173.765,31.67 C173.214997,31.870001 172.765002,32.1499982 172.415,32.51 C172.064998,32.8700018 171.89,33.3299972 171.89,33.89 C171.89,34.7100041 172.164997,35.2999982 172.715,35.66 C173.265003,36.0200018 174.009995,36.2 174.95,36.2 C175.690004,36.2 176.319997,36.0750013 176.84,35.825 C177.360003,35.5749988 177.779998,35.250002 178.1,34.85 C178.420002,34.449998 178.649999,34.0050025 178.79,33.515 C178.930001,33.0249976 179,32.5400024 179,32.06 L179,31.16 L177.56,31.16 Z M185.45,23.78 L188.15,23.78 L188.15,25.97 L188.21,25.97 C188.550002,25.2099962 189.139996,24.5950024 189.98,24.125 C190.820004,23.6549977 191.789994,23.42 192.89,23.42 C193.570003,23.42 194.224997,23.524999 194.855,23.735 C195.485003,23.9450011 196.034998,24.2699978 196.505,24.71 C196.975002,25.1500022 197.349999,25.7149966 197.63,26.405 C197.910001,27.0950035 198.05,27.9099953 198.05,28.85 L198.05,38 L195.35,38 L195.35,29.6 C195.35,28.9399967 195.260001,28.3750024 195.08,27.905 C194.899999,27.4349977 194.660001,27.0550015 194.36,26.765 C194.059999,26.4749986 193.715002,26.2650007 193.325,26.135 C192.934998,26.0049994 192.530002,25.94 192.11,25.94 C191.549997,25.94 191.030002,26.0299991 190.55,26.21 C190.069998,26.3900009 189.650002,26.6749981 189.29,27.065 C188.929998,27.455002 188.650001,27.949997 188.45,28.55 C188.249999,29.150003 188.15,29.8599959 188.15,30.68 L188.15,38 L185.45,38 L185.45,23.78 Z M225.95,21.35 C225.349997,20.5699961 224.590005,19.9700021 223.67,19.55 C222.749995,19.1299979 221.800005,18.92 220.82,18.92 C219.619994,18.92 218.535005,19.1449978 217.565,19.595 C216.594995,20.0450023 215.765003,20.6599961 215.075,21.44 C214.384997,22.2200039 213.850002,23.1349948 213.47,24.185 C213.089998,25.2350053 212.9,26.359994 212.9,27.56 C212.9,28.6800056 213.079998,29.739995 213.44,30.74 C213.800002,31.740005 214.319997,32.6199962 215,33.38 C215.680003,34.1400038 216.509995,34.7399978 217.49,35.18 C218.470005,35.6200022 219.579994,35.84 220.82,35.84 C222.040006,35.84 223.109995,35.5900025 224.03,35.09 C224.950005,34.5899975 225.729997,33.8900045 226.37,32.99 L228.8,34.82 C228.639999,35.0400011 228.360002,35.354998 227.96,35.765 C227.559998,36.1750021 227.030003,36.584998 226.37,36.995 C225.709997,37.4050021 224.915005,37.7649985 223.985,38.075 C223.054995,38.3850016 221.980006,38.54 220.76,38.54 C219.079992,38.54 217.565007,38.2200032 216.215,37.58 C214.864993,36.9399968 213.715005,36.1000052 212.765,35.06 C211.814995,34.0199948 211.090003,32.8450066 210.59,31.535 C210.089998,30.2249935 209.84,28.9000067 209.84,27.56 C209.84,25.9199918 210.109997,24.405007 210.65,23.015 C211.190003,21.6249931 211.944995,20.4250051 212.915,19.415 C213.885005,18.404995 215.049993,17.6200028 216.41,17.06 C217.770007,16.4999972 219.269992,16.22 220.91,16.22 C222.310007,16.22 223.684993,16.4899973 225.035,17.03 C226.385007,17.5700027 227.489996,18.3999944 228.35,19.52 L225.95,21.35 Z M233.78,30.89 C233.78,31.6100036 233.889999,32.274997 234.11,32.885 C234.330001,33.4950031 234.639998,34.0149979 235.04,34.445 C235.440002,34.8750022 235.929997,35.2149988 236.51,35.465 C237.090003,35.7150013 237.739996,35.84 238.46,35.84 C239.180004,35.84 239.829997,35.7150013 240.41,35.465 C240.990003,35.2149988 241.479998,34.8750022 241.88,34.445 C242.280002,34.0149979 242.589999,33.4950031 242.81,32.885 C243.030001,32.274997 243.14,31.6100036 243.14,30.89 C243.14,30.1699964 243.030001,29.5050031 242.81,28.895 C242.589999,28.284997 242.280002,27.7650022 241.88,27.335 C241.479998,26.9049979 240.990003,26.5650013 240.41,26.315 C239.829997,26.0649988 239.180004,25.94 238.46,25.94 C237.739996,25.94 237.090003,26.0649988 236.51,26.315 C235.929997,26.5650013 235.440002,26.9049979 235.04,27.335 C234.639998,27.7650022 234.330001,28.284997 234.11,28.895 C233.889999,29.5050031 233.78,30.1699964 233.78,30.89 L233.78,30.89 Z M230.9,30.89 C230.9,29.8499948 231.094998,28.8800045 231.485,27.98 C231.875002,27.0799955 232.409997,26.2900034 233.09,25.61 C233.770003,24.9299966 234.569995,24.395002 235.49,24.005 C236.410005,23.6149981 237.399995,23.42 238.46,23.42 C239.520005,23.42 240.509995,23.6149981 241.43,24.005 C242.350005,24.395002 243.149997,24.9299966 243.83,25.61 C244.510003,26.2900034 245.044998,27.0799955 245.435,27.98 C245.825002,28.8800045 246.02,29.8499948 246.02,30.89 C246.02,31.9300052 245.825002,32.9049955 245.435,33.815 C245.044998,34.7250046 244.510003,35.5149967 243.83,36.185 C243.149997,36.8550034 242.350005,37.3849981 241.43,37.775 C240.509995,38.165002 239.520005,38.36 238.46,38.36 C237.399995,38.36 236.410005,38.165002 235.49,37.775 C234.569995,37.3849981 233.770003,36.8550034 233.09,36.185 C232.409997,35.5149967 231.875002,34.7250046 231.485,33.815 C231.094998,32.9049955 230.9,31.9300052 230.9,30.89 L230.9,30.89 Z M263.66,38 L260.96,38 L260.96,35.96 L260.9,35.96 C260.379997,36.7200038 259.665005,37.3099979 258.755,37.73 C257.844995,38.1500021 256.910005,38.36 255.95,38.36 C254.849995,38.36 253.855004,38.1700019 252.965,37.79 C252.074996,37.4099981 251.315003,36.8800034 250.685,36.2 C250.054997,35.5199966 249.570002,34.7300045 249.23,33.83 C248.889998,32.9299955 248.72,31.9500053 248.72,30.89 C248.72,29.8299947 248.889998,28.8450046 249.23,27.935 C249.570002,27.0249955 250.054997,26.2350034 250.685,25.565 C251.315003,24.8949967 252.074996,24.3700019 252.965,23.99 C253.855004,23.6099981 254.849995,23.42 255.95,23.42 C256.970005,23.42 257.929996,23.6349979 258.83,24.065 C259.730005,24.4950022 260.419998,25.0799963 260.9,25.82 L260.96,25.82 L260.96,15.32 L263.66,15.32 L263.66,38 Z M256.28,35.84 C257.000004,35.84 257.649997,35.7150013 258.23,35.465 C258.810003,35.2149988 259.299998,34.8750022 259.7,34.445 C260.100002,34.0149979 260.409999,33.4950031 260.63,32.885 C260.850001,32.274997 260.96,31.6100036 260.96,30.89 C260.96,30.1699964 260.850001,29.5050031 260.63,28.895 C260.409999,28.284997 260.100002,27.7650022 259.7,27.335 C259.299998,26.9049979 258.810003,26.5650013 258.23,26.315 C257.649997,26.0649988 257.000004,25.94 256.28,25.94 C255.559996,25.94 254.910003,26.0649988 254.33,26.315 C253.749997,26.5650013 253.260002,26.9049979 252.86,27.335 C252.459998,27.7650022 252.150001,28.284997 251.93,28.895 C251.709999,29.5050031 251.6,30.1699964 251.6,30.89 C251.6,31.6100036 251.709999,32.274997 251.93,32.885 C252.150001,33.4950031 252.459998,34.0149979 252.86,34.445 C253.260002,34.8750022 253.749997,35.2149988 254.33,35.465 C254.910003,35.7150013 255.559996,35.84 256.28,35.84 L256.28,35.84 Z M267.95,23.78 L270.65,23.78 L270.65,38 L267.95,38 L267.95,23.78 Z M267.32,18.68 C267.32,18.1399973 267.514998,17.675002 267.905,17.285 C268.295002,16.8949981 268.759997,16.7 269.3,16.7 C269.840003,16.7 270.304998,16.8949981 270.695,17.285 C271.085002,17.675002 271.28,18.1399973 271.28,18.68 C271.28,19.2200027 271.085002,19.6849981 270.695,20.075 C270.304998,20.465002 269.840003,20.66 269.3,20.66 C268.759997,20.66 268.295002,20.465002 267.905,20.075 C267.514998,19.6849981 267.32,19.2200027 267.32,18.68 L267.32,18.68 Z M274.94,23.78 L277.64,23.78 L277.64,25.97 L277.7,25.97 C278.040002,25.2099962 278.629996,24.5950024 279.47,24.125 C280.310004,23.6549977 281.279995,23.42 282.38,23.42 C283.060003,23.42 283.714997,23.524999 284.345,23.735 C284.975003,23.9450011 285.524998,24.2699978 285.995,24.71 C286.465002,25.1500022 286.839999,25.7149966 287.12,26.405 C287.400001,27.0950035 287.54,27.9099953 287.54,28.85 L287.54,38 L284.84,38 L284.84,29.6 C284.84,28.9399967 284.750001,28.3750024 284.57,27.905 C284.389999,27.4349977 284.150002,27.0550015 283.85,26.765 C283.549999,26.4749986 283.205002,26.2650007 282.815,26.135 C282.424998,26.0049994 282.020002,25.94 281.6,25.94 C281.039997,25.94 280.520002,26.0299991 280.04,26.21 C279.559998,26.3900009 279.140002,26.6749981 278.78,27.065 C278.419998,27.455002 278.140001,27.949997 277.94,28.55 C277.739999,29.150003 277.64,29.8599959 277.64,30.68 L277.64,38 L274.94,38 L274.94,23.78 Z M305.87,37.88 C305.87,38.9600054 305.685002,39.9449956 305.315,40.835 C304.944998,41.7250045 304.420003,42.4949968 303.74,43.145 C303.059997,43.7950033 302.240005,44.2999982 301.28,44.66 C300.319995,45.0200018 299.260006,45.2 298.1,45.2 C296.739993,45.2 295.495006,45.0100019 294.365,44.63 C293.234994,44.2499981 292.160005,43.5900047 291.14,42.65 L292.97,40.37 C293.670003,41.1300038 294.429996,41.7049981 295.25,42.095 C296.070004,42.485002 296.999995,42.68 298.04,42.68 C299.040005,42.68 299.869997,42.5350015 300.53,42.245 C301.190003,41.9549986 301.714998,41.5800023 302.105,41.12 C302.495002,40.6599977 302.769999,40.135003 302.93,39.545 C303.090001,38.9549971 303.17,38.360003 303.17,37.76 L303.17,35.66 L303.08,35.66 C302.559997,36.5200043 301.855004,37.154998 300.965,37.565 C300.074996,37.9750021 299.140005,38.18 298.16,38.18 C297.119995,38.18 296.155004,37.9950019 295.265,37.625 C294.374996,37.2549982 293.610003,36.7450033 292.97,36.095 C292.329997,35.4449968 291.830002,34.6750045 291.47,33.785 C291.109998,32.8949956 290.93,31.9300052 290.93,30.89 C290.93,29.8499948 291.099998,28.8750046 291.44,27.965 C291.780002,27.0549955 292.264997,26.2600034 292.895,25.58 C293.525003,24.8999966 294.284996,24.3700019 295.175,23.99 C296.065004,23.6099981 297.059994,23.42 298.16,23.42 C299.120005,23.42 300.054995,23.6299979 300.965,24.05 C301.875005,24.4700021 302.589997,25.0599962 303.11,25.82 L303.17,25.82 L303.17,23.78 L305.87,23.78 L305.87,37.88 Z M298.49,25.94 C297.769996,25.94 297.120003,26.0649988 296.54,26.315 C295.959997,26.5650013 295.470002,26.9049979 295.07,27.335 C294.669998,27.7650022 294.360001,28.284997 294.14,28.895 C293.919999,29.5050031 293.81,30.1699964 293.81,30.89 C293.81,32.3300072 294.229996,33.4849957 295.07,34.355 C295.910004,35.2250044 297.049993,35.66 298.49,35.66 C299.930007,35.66 301.069996,35.2250044 301.91,34.355 C302.750004,33.4849957 303.17,32.3300072 303.17,30.89 C303.17,30.1699964 303.060001,29.5050031 302.84,28.895 C302.619999,28.284997 302.310002,27.7650022 301.91,27.335 C301.509998,26.9049979 301.020003,26.5650013 300.44,26.315 C299.859997,26.0649988 299.210004,25.94 298.49,25.94 L298.49,25.94 Z" id="bohemian" sketch:type="MSShapeGroup"></path>
        </g>
    </g>
</svg>