<?xml version="1.0" encoding="UTF-8" standalone="no"?>
<svg width="268px" height="42px" viewBox="0 0 268 42" version="1.1" xmlns="http://www.w3.org/2000/svg" xmlns:xlink="http://www.w3.org/1999/xlink" xmlns:sketch="http://www.bohemiancoding.com/sketch/ns">
    <!-- Generator: Sketch 3.3.2 (12043) - http://www.bohemiancoding.com/sketch -->
    <title>industry</title>
    <desc>Created with Sketch.</desc>
    <defs></defs>
    <g id="Exporting" stroke="none" stroke-width="1" fill="none" fill-rule="evenodd" sketch:type="MSPage">
        <g id="Companies" sketch:type="MSLayerGroup" transform="translate(-491.000000, -7.000000)" fill="#6B93A2">
            <path d="M524.933183,43.9387633 L527.907008,40.9620359 L529.33996,45.3731137 L524.933183,43.9387633 L524.933183,43.9387633 Z M516.14561,31.345686 L517.846366,29.64327 L526.476055,38.2833813 L524.779296,39.9837968 L516.14561,31.345686 L516.14561,31.345686 Z M522.255142,42.5104142 L513.625453,33.8683025 L515.324211,32.1658865 L523.955898,40.8059977 L522.255142,42.5104142 L522.255142,42.5104142 Z M510.281898,30.5234851 L511.982654,28.8210691 L513.681412,30.5214846 L511.980656,32.2239006 L510.281898,30.5234851 L510.281898,30.5234851 Z M501.702173,42.5124147 L500.003415,40.8119992 L508.637101,32.1698874 L510.335859,33.8683025 L501.702173,42.5124147 L501.702173,42.5124147 Z M497.479261,38.2853818 L506.114946,29.64327 L507.815702,31.345686 L499.182016,39.9897983 L497.479261,38.2853818 L497.479261,38.2853818 Z M494.617354,45.3771147 L496.050306,40.9660368 L499.02613,43.9427642 L494.617354,45.3771147 L494.617354,45.3771147 Z M509.4585,26.2944517 L511.161255,27.9988682 L509.4585,29.7012842 L507.757744,27.9988682 L509.4585,26.2944517 L509.4585,26.2944517 Z M511.980656,23.7718353 L513.681412,25.4742513 L511.982654,27.1766673 L510.281898,25.4742513 L511.980656,23.7718353 L511.980656,23.7718353 Z M516.201569,27.9988682 L514.502811,29.6992837 L512.804054,27.9988682 L514.502811,26.2964522 L516.201569,27.9988682 L516.201569,27.9988682 Z M529.343957,37.8612782 L529.343957,37.8632787 L519.489165,27.9988682 L527.685171,19.7948635 L526.040373,18.1504617 L517.846366,26.3524659 L516.14561,24.6520504 L524.341616,16.4480457 L523.520217,15.6258448 L515.324211,23.8298495 L513.625453,22.1274335 L521.81946,13.9254293 L520.176662,12.279027 L511.980656,20.4830317 L503.782651,12.275026 L502.139853,13.9214283 L510.337857,22.1274335 L508.637101,23.8298495 L500.439097,15.6218438 L499.617698,16.4440447 L507.815702,24.6520504 L506.114946,26.3524659 L497.916941,18.1464607 L496.274143,19.7908625 L504.472147,27.9988682 L494.615356,37.8632787 L494.613357,37.8632787 L494.613357,37.8672796 L494.611359,37.8692801 L494.613357,37.8692801 L491,49 L502.117869,45.3831162 L502.119868,45.3831162 L502.123865,45.3811157 L502.121866,45.3811157 L511.980656,35.5127043 L521.83345,45.3771147 L521.83345,45.3791152 L521.837447,45.3791152 L521.839446,45.3811157 L521.839446,45.3791152 L532.957315,48.9979995 L529.345956,37.8652792 L529.343957,37.8612782 L529.343957,37.8612782 Z M493.398246,16.9141596 L493.809945,17.3262603 L501.318454,9.81042374 L500.906755,9.39632256 C500.906755,9.39632256 497.215454,4.41510536 492.816671,8.81618079 C491.483646,10.1505068 491.021984,11.4268187 491.021984,12.5550944 C491.021984,15.1117192 493.398246,16.9141596 493.398246,16.9141596 L493.398246,16.9141596 Z M530.561067,16.9161601 C530.561067,16.9161601 535.537428,13.2212572 531.140643,8.82018177 C529.807618,7.48585572 528.534549,7.02174231 527.405375,7.02174231 C524.851243,7.02174231 523.05056,9.40232402 523.05056,9.40232402 L522.64086,9.81442472 L530.14737,17.3282608 L530.561067,16.9161601 Z M563.67485,13.265268 L563.67485,47.8017072 L558.374726,47.8017072 L558.374726,13.265268 L553.438336,13.265268 L553.438336,7.95997157 L568.61124,7.95997157 L568.61124,13.265268 L563.67485,13.265268 Z M582.069397,47.8017072 L582.069397,30.1173859 L576.249653,30.1173859 L576.249653,47.8017072 L570.949529,47.8017072 L570.949529,7.95997157 L576.249653,7.95997157 L576.249653,24.8120895 L582.069397,24.8120895 L582.069397,7.95997157 L587.369521,7.95997157 L587.369521,47.8017072 L582.069397,47.8017072 Z M591.526481,47.8017072 L591.526481,7.95997157 L604.205208,7.95997157 L604.205208,13.265268 L596.826604,13.265268 L596.826604,25.0721531 L603.841474,25.0721531 L603.841474,30.3774494 L596.826604,30.3774494 L596.826604,42.4964108 L604.205208,42.4964108 L604.205208,47.8017072 L591.526481,47.8017072 Z M614.857418,47.8017072 L614.857418,7.95997157 L620.157541,7.95997157 L620.157541,47.8017072 L614.857418,47.8017072 Z M636.473609,47.8017072 L630.082283,21.6913269 L629.250891,18.9346533 L629.614625,21.7953523 L629.614625,47.8017072 L624.314501,47.8017072 L624.314501,7.95997157 L631.017599,7.95997157 L637.720697,35.3186569 L638.759937,38.2313686 L638.136393,35.3186569 L638.136393,7.95997157 L643.436517,7.95997157 L643.436517,47.8017072 L636.473609,47.8017072 Z M663.753658,39.4796736 C663.753658,40.9707121 663.571793,42.2450107 663.208057,43.3026078 C662.844321,44.3602049 662.350687,45.218406 661.72714,45.8772369 C661.103593,46.5360679 660.358812,47.021515 659.492774,47.3335928 C658.626736,47.6456706 657.69143,47.8017072 656.686826,47.8017072 L647.593476,47.8017072 L647.593476,7.95997157 L656.686826,7.95997157 C657.69143,7.95997157 658.626736,8.11600814 659.492774,8.42808596 C660.358812,8.74016378 661.103593,9.22561088 661.72714,9.88444183 C662.350687,10.5432728 662.844321,11.4014739 663.208057,12.459071 C663.571793,13.516668 663.753658,14.7909667 663.753658,16.2820051 L663.753658,39.4796736 Z M658.453534,16.9581703 C658.453534,15.5018072 658.219707,14.4789008 657.752047,13.8894205 C657.284387,13.2999402 656.548266,13.0052044 655.543662,13.0052044 L652.8936,13.0052044 L652.8936,42.7564743 L655.543662,42.7564743 C656.548266,42.7564743 657.284387,42.4617386 657.752047,41.8722583 C658.219707,41.282778 658.453534,40.2598716 658.453534,38.8035084 L658.453534,16.9581703 Z M683.914913,40.1558389 C683.914913,41.6468773 683.698407,42.921176 683.265388,43.978773 C682.832369,45.0363701 682.234812,45.8945712 681.472699,46.5534022 C680.710586,47.2122331 679.835901,47.6976802 678.848618,48.009758 C677.861335,48.3218358 676.813445,48.4778724 675.704917,48.4778724 C674.596389,48.4778724 673.548499,48.3218358 672.561216,48.009758 C671.573934,47.6976802 670.699249,47.2035644 669.937136,46.5273958 C669.175022,45.8512272 668.577465,44.9843574 668.144447,43.9267603 C667.711428,42.8691633 667.494922,41.612202 667.494922,40.1558389 L667.494922,7.95997157 L672.795045,7.95997157 L672.795045,40.311877 C672.795045,41.7682401 673.098154,42.7911465 673.70438,43.3806269 C674.310607,43.9701072 674.977446,44.2648429 675.704917,44.2648429 C676.432389,44.2648429 677.099228,43.9701072 677.705454,43.3806269 C678.311681,42.7911465 678.614789,41.7682401 678.614789,40.311877 L678.614789,7.95997157 L683.914913,7.95997157 L683.914913,40.1558389 Z M703.816358,40.1558389 C703.816358,43.0338899 703.054257,45.1403835 701.53003,46.4753831 C700.005804,47.8103826 698.031268,48.4778724 695.606363,48.4778724 C693.181457,48.4778724 691.206921,47.801714 689.682695,46.4493767 C688.158469,45.0970395 687.396367,42.9992145 687.396367,40.1558389 L687.396367,34.4864535 L692.696491,34.4864535 L692.696491,39.4796736 C692.696491,40.9360368 692.999599,41.9589432 693.605826,42.5484235 C694.212052,43.1379038 694.878891,43.4326396 695.606363,43.4326396 C696.333834,43.4326396 697.000673,43.1379038 697.606899,42.5484235 C698.213126,41.9589432 698.516234,40.9360368 698.516234,39.4796736 L698.516234,36.2028729 C698.516234,35.4746914 698.239107,34.7551894 697.684842,34.0443455 C697.130578,33.3335016 696.446419,32.6053309 695.632344,31.8598117 C694.818268,31.1142924 693.926263,30.351447 692.956301,29.5712524 C691.986338,28.7910579 691.094333,27.9415255 690.280258,27.0226297 C689.466182,26.1037339 688.782023,25.1155023 688.227759,24.0579052 C687.673495,23.0003082 687.396367,21.8473713 687.396367,20.59906 L687.396367,15.6058399 C687.396367,14.1494767 687.612873,12.8925155 688.045892,11.8349184 C688.478911,10.7773214 689.076468,9.91045157 689.838581,9.23428296 C690.600694,8.55811435 691.475379,8.06399855 692.462662,7.75192073 C693.449945,7.43984292 694.497834,7.28380635 695.606363,7.28380635 C696.714891,7.28380635 697.76278,7.43984292 698.750063,7.75192073 C699.737346,8.06399855 700.612031,8.54944566 701.374144,9.20827661 C702.136257,9.86710756 702.733814,10.7253087 703.166833,11.7829057 C703.599852,12.8405028 703.816358,14.1148014 703.816358,15.6058399 L703.816358,21.8473651 L698.516234,21.8473651 L698.516234,16.2820051 C698.516234,14.825642 698.213126,13.8027356 697.606899,13.2132553 C697.000673,12.6237749 696.333834,12.3290392 695.606363,12.3290392 C694.878891,12.3290392 694.212052,12.6237749 693.605826,13.2132553 C692.999599,13.8027356 692.696491,14.825642 692.696491,16.2820051 L692.696491,19.6108185 C692.696491,20.6164026 692.973619,21.5266159 693.527883,22.3414858 C694.082147,23.1563557 694.766306,23.9278698 695.580382,24.6560514 C696.394457,25.384233 697.286462,26.1124036 698.256424,26.8405852 C699.226387,27.5687668 700.118392,28.3316122 700.932467,29.1291444 C701.746543,29.9266766 702.430702,30.8108838 702.984966,31.7817926 C703.53923,32.7527014 703.816358,33.8622948 703.816358,35.110606 L703.816358,40.1558389 Z M715.871542,13.265268 L715.871542,47.8017072 L710.571418,47.8017072 L710.571418,13.265268 L705.635028,13.265268 L705.635028,7.95997157 L720.807932,7.95997157 L720.807932,13.265268 L715.871542,13.265268 Z M735.045519,47.8017072 L730.472863,31.4177036 L728.446345,31.4177036 L728.446345,47.8017072 L723.146221,47.8017072 L723.146221,7.95997157 L732.343495,7.95997157 C734.352702,7.95997157 736.01547,8.60145524 737.331847,9.88444183 C738.648224,11.1674284 739.306403,13.2999282 739.306403,16.2820051 L739.306403,22.6795684 C739.306403,24.6907366 738.959993,26.3291205 738.267163,27.5947695 C737.574333,28.8604184 736.639026,29.7532943 735.461215,30.273424 L740.345643,47.8017072 L735.045519,47.8017072 Z M734.006279,16.9581703 C734.006279,15.5018072 733.772452,14.4789008 733.304792,13.8894205 C732.837132,13.2999402 732.101011,13.0052044 731.096407,13.0052044 L728.446345,13.0052044 L728.446345,26.3724708 L731.096407,26.3724708 C732.101011,26.3724708 732.837132,26.0777351 733.304792,25.4882547 C733.772452,24.8987744 734.006279,23.875868 734.006279,22.4195049 L734.006279,16.9581703 Z M752.400826,33.9143137 L752.400826,47.8017072 L746.165387,47.8017072 L746.165387,33.9663264 L740.397605,7.90795886 L745.749691,7.90795886 L749.438992,25.2281912 L753.647914,7.85594615 L759,7.85594615 L752.400826,33.9143137 Z" id="industry" sketch:type="MSShapeGroup"></path>
        </g>
    </g>
</svg>