<?xml version="1.0" encoding="UTF-8" standalone="no"?>
<svg width="257px" height="60px" viewBox="0 0 257 60" version="1.1" xmlns="http://www.w3.org/2000/svg" xmlns:xlink="http://www.w3.org/1999/xlink" xmlns:sketch="http://www.bohemiancoding.com/sketch/ns">
    <!-- Generator: Sketch 3.3.2 (12043) - http://www.bohemiancoding.com/sketch -->
    <title>sketchcasts</title>
    <desc>Created with Sketch.</desc>
    <defs></defs>
    <g id="Exporting" stroke="none" stroke-width="1" fill="none" fill-rule="evenodd" sketch:type="MSPage">
        <g id="Companies" sketch:type="MSLayerGroup" transform="translate(-496.000000, -97.000000)">
            <g id="sketchcasts" transform="translate(497.000000, 98.000000)" sketch:type="MSShapeGroup">
                <g id="Sketch-Icon" stroke="#6B93A2" stroke-width="2">
                    <path d="M9.19526464,4.44500234 C9.06533155,4.49737035 9.06431654,4.58653808 9.19526464,4.64517929 L20.224,9.58407078 L43.776,9.58407078 L54.8047354,4.64517933 C54.9346685,4.58699267 54.9356835,4.4977795 54.8047354,4.4450024 L43.776,0 L20.224,3.44133228e-09 L9.19526464,4.44500234 L9.19526464,4.44500234 Z" id="Path-57"></path>
                    <path d="M9.15550755,4.62737538 C9.04753155,4.57902154 8.89799898,4.61137788 8.81925952,4.70225083 L0.16705517,14.6877331 C0.0747931472,14.7942124 0.0861039734,14.9559355 0.19033968,15.0472186 L11.3296603,24.802339 C11.434782,24.894398 11.575582,24.8707812 11.6463977,24.7456094 L20.224,9.58407078 L9.15550755,4.62737538 L9.15550755,4.62737538 Z" id="Path-58"></path>
                    <path d="M52.3746682,4.78350987 L43.7023088,14.7224173 C43.6091287,14.8292059 43.6194579,14.9903306 43.7281715,15.084723 L55.0218717,24.8906773 L63.7658339,9.65784691 L52.3746682,4.78350987 L52.3746682,4.78350987 Z" id="Path-62" transform="translate(53.702378, 14.837094) scale(-1, 1) translate(-53.702378, -14.837094) "></path>
                    <path d="M11.6617984,24.8340758 L31.9557704,56.8356274 L52.216824,24.8957682 L11.6617984,24.8340758 L11.6617984,24.8340758 Z" id="Path-63"></path>
                    <path d="M32.0354672,56.7919795 L63.5883478,15.0862678 C63.674312,14.9726425 63.6587469,14.9550051 63.5508109,15.0492946 L52.3378544,24.8445611 L32.0354672,56.7919795 L32.0354672,56.7919795 Z" id="Path-64"></path>
                    <path d="M0.15349917,56.5321908 C0.0767632968,56.6512615 0.0850254831,56.6555893 0.171639615,56.5422679 L31.8574735,15.0860508 C31.9442281,14.9725454 31.9284526,14.9559355 31.8242169,15.0472186 L20.6848963,24.802339 C20.5797746,24.894398 20.4321189,25.065911 20.355614,25.1846234 L0.15349917,56.5321908 L0.15349917,56.5321908 Z" id="Path-65" transform="translate(16.007278, 35.806448) scale(-1, 1) translate(-16.007278, -35.806448) "></path>
                </g>
                <path d="M97.66,19.95 C97.2799981,19.4699976 96.7650032,19.1150012 96.115,18.885 C95.4649967,18.6549989 94.8500029,18.54 94.27,18.54 C93.9299983,18.54 93.5800018,18.5799996 93.22,18.66 C92.8599982,18.7400004 92.5200016,18.8649992 92.2,19.035 C91.8799984,19.2050009 91.620001,19.4299986 91.42,19.71 C91.219999,19.9900014 91.12,20.329998 91.12,20.73 C91.12,21.3700032 91.3599976,21.8599983 91.84,22.2 C92.3200024,22.5400017 92.9249963,22.8299988 93.655,23.07 C94.3850036,23.3100012 95.1699958,23.5499988 96.01,23.79 C96.8500042,24.0300012 97.6349963,24.3699978 98.365,24.81 C99.0950036,25.2500022 99.6999976,25.8399963 100.18,26.58 C100.660002,27.3200037 100.9,28.3099938 100.9,29.55 C100.9,30.7300059 100.680002,31.7599956 100.24,32.64 C99.7999978,33.5200044 99.2050037,34.2499971 98.455,34.83 C97.7049962,35.4100029 96.8350049,35.8399986 95.845,36.12 C94.854995,36.4000014 93.8100055,36.54 92.71,36.54 C91.3299931,36.54 90.0500059,36.3300021 88.87,35.91 C87.6899941,35.4899979 86.5900051,34.8100047 85.57,33.87 L88.9,30.21 C89.3800024,30.8500032 89.9849963,31.3449983 90.715,31.695 C91.4450036,32.0450018 92.1999961,32.22 92.98,32.22 C93.3600019,32.22 93.744998,32.1750005 94.135,32.085 C94.5250019,31.9949996 94.8749984,31.8600009 95.185,31.68 C95.4950015,31.4999991 95.744999,31.2700014 95.935,30.99 C96.1250009,30.7099986 96.22,30.3800019 96.22,30 C96.22,29.3599968 95.9750024,28.8550019 95.485,28.485 C94.9949975,28.1149982 94.3800037,27.8000013 93.64,27.54 C92.8999963,27.2799987 92.1000043,27.0200013 91.24,26.76 C90.3799957,26.4999987 89.5800037,26.1500022 88.84,25.71 C88.0999963,25.2699978 87.4850024,24.6900036 86.995,23.97 C86.5049975,23.2499964 86.26,22.3000059 86.26,21.12 C86.26,19.9799943 86.4849977,18.9800043 86.935,18.12 C87.3850022,17.2599957 87.9849962,16.5400029 88.735,15.96 C89.4850037,15.3799971 90.3499951,14.9450015 91.33,14.655 C92.3100049,14.3649986 93.3199948,14.22 94.36,14.22 C95.560006,14.22 96.7199944,14.3899983 97.84,14.73 C98.9600056,15.0700017 99.9699955,15.639996 100.87,16.44 L97.66,19.95 Z M103.81,13.32 L108.31,13.32 L108.31,27.18 L113.29,21.42 L118.81,21.42 L113.02,27.99 L118.96,36 L113.29,36 L108.37,28.62 L108.31,28.62 L108.31,36 L103.81,36 L103.81,13.32 Z M134.29,33.48 C133.569996,34.4000046 132.660005,35.1099975 131.56,35.61 C130.459994,36.1100025 129.320006,36.36 128.14,36.36 C127.019994,36.36 125.965005,36.1800018 124.975,35.82 C123.984995,35.4599982 123.125004,34.9450034 122.395,34.275 C121.664996,33.6049967 121.090002,32.8000047 120.67,31.86 C120.249998,30.9199953 120.04,29.8700058 120.04,28.71 C120.04,27.5499942 120.249998,26.5000047 120.67,25.56 C121.090002,24.6199953 121.664996,23.8150034 122.395,23.145 C123.125004,22.4749967 123.984995,21.9600018 124.975,21.6 C125.965005,21.2399982 127.019994,21.06 128.14,21.06 C129.180005,21.06 130.124996,21.2399982 130.975,21.6 C131.825004,21.9600018 132.544997,22.4749967 133.135,23.145 C133.725003,23.8150034 134.179998,24.6199953 134.5,25.56 C134.820002,26.5000047 134.98,27.5499942 134.98,28.71 L134.98,30.12 L124.54,30.12 C124.720001,30.9800043 125.109997,31.6649975 125.71,32.175 C126.310003,32.6850026 127.049996,32.94 127.93,32.94 C128.670004,32.94 129.294997,32.7750017 129.805,32.445 C130.315003,32.1149984 130.759998,31.6900026 131.14,31.17 L134.29,33.48 Z M130.48,27.06 C130.5,26.2999962 130.250003,25.6500027 129.73,25.11 C129.209997,24.5699973 128.540004,24.3 127.72,24.3 C127.219997,24.3 126.780002,24.3799992 126.4,24.54 C126.019998,24.7000008 125.695001,24.9049988 125.425,25.155 C125.154999,25.4050013 124.945001,25.6949984 124.795,26.025 C124.644999,26.3550017 124.56,26.6999982 124.54,27.06 L130.48,27.06 Z M147.64,25.02 L143.68,25.02 L143.68,29.88 C143.68,30.280002 143.7,30.6449984 143.74,30.975 C143.78,31.3050017 143.869999,31.5899988 144.01,31.83 C144.150001,32.0700012 144.364999,32.2549994 144.655,32.385 C144.945001,32.5150007 145.329998,32.58 145.81,32.58 C146.050001,32.58 146.364998,32.5550003 146.755,32.505 C147.145002,32.4549998 147.439999,32.3400009 147.64,32.16 L147.64,35.91 C147.139997,36.0900009 146.620003,36.2099997 146.08,36.27 C145.539997,36.3300003 145.010003,36.36 144.49,36.36 C143.729996,36.36 143.030003,36.2800008 142.39,36.12 C141.749997,35.9599992 141.190002,35.7050018 140.71,35.355 C140.229998,35.0049983 139.855001,34.5500028 139.585,33.99 C139.314999,33.4299972 139.18,32.750004 139.18,31.95 L139.18,25.02 L136.3,25.02 L136.3,21.42 L139.18,21.42 L139.18,17.1 L143.68,17.1 L143.68,21.42 L147.64,21.42 L147.64,25.02 Z M159.79,26.13 C159.569999,25.8099984 159.260002,25.5450011 158.86,25.335 C158.459998,25.124999 158.030002,25.02 157.57,25.02 C156.429994,25.02 155.545003,25.3599966 154.915,26.04 C154.284997,26.7200034 153.97,27.6099945 153.97,28.71 C153.97,29.8100055 154.284997,30.6999966 154.915,31.38 C155.545003,32.0600034 156.429994,32.4 157.57,32.4 C158.070002,32.4 158.499998,32.2900011 158.86,32.07 C159.220002,31.8499989 159.529999,31.5900015 159.79,31.29 L162.76,34.41 C162.059996,35.1300036 161.235005,35.6349986 160.285,35.925 C159.334995,36.2150015 158.430004,36.36 157.57,36.36 C156.449994,36.36 155.395005,36.1800018 154.405,35.82 C153.414995,35.4599982 152.555004,34.9450034 151.825,34.275 C151.094996,33.6049967 150.520002,32.8000047 150.1,31.86 C149.679998,30.9199953 149.47,29.8700058 149.47,28.71 C149.47,27.5499942 149.679998,26.5000047 150.1,25.56 C150.520002,24.6199953 151.094996,23.8150034 151.825,23.145 C152.555004,22.4749967 153.414995,21.9600018 154.405,21.6 C155.395005,21.2399982 156.449994,21.06 157.57,21.06 C158.430004,21.06 159.334995,21.2049986 160.285,21.495 C161.235005,21.7850015 162.059996,22.2899964 162.76,23.01 L159.79,26.13 Z M168.88,13.32 L168.88,23.4 L168.94,23.4 C169.04,23.1199986 169.209999,22.8400014 169.45,22.56 C169.690001,22.2799986 169.979998,22.0300011 170.32,21.81 C170.660002,21.5899989 171.059998,21.4100007 171.52,21.27 C171.980002,21.1299993 172.479997,21.06 173.02,21.06 C174.160006,21.06 175.079996,21.2349983 175.78,21.585 C176.480003,21.9350018 177.024998,22.4199969 177.415,23.04 C177.805002,23.6600031 178.069999,24.3899958 178.21,25.23 C178.350001,26.0700042 178.42,26.9799951 178.42,27.96 L178.42,36 L173.92,36 L173.92,28.86 C173.92,28.4399979 173.905,28.0050023 173.875,27.555 C173.845,27.1049978 173.755001,26.6900019 173.605,26.31 C173.454999,25.9299981 173.225002,25.6200012 172.915,25.38 C172.604998,25.1399988 172.160003,25.02 171.58,25.02 C170.999997,25.02 170.530002,25.124999 170.17,25.335 C169.809998,25.5450011 169.535001,25.8249983 169.345,26.175 C169.154999,26.5250018 169.03,26.9199978 168.97,27.36 C168.91,27.8000022 168.88,28.2599976 168.88,28.74 L168.88,36 L164.38,36 L164.38,13.32 L168.88,13.32 Z M196.06,20.28 C195.599998,19.7199972 195.035003,19.2900015 194.365,18.99 C193.694997,18.6899985 192.920004,18.54 192.04,18.54 C191.159996,18.54 190.345004,18.7099983 189.595,19.05 C188.844996,19.3900017 188.195003,19.864997 187.645,20.475 C187.094997,21.0850031 186.665002,21.8099958 186.355,22.65 C186.044998,23.4900042 185.89,24.3999951 185.89,25.38 C185.89,26.380005 186.044998,27.2949959 186.355,28.125 C186.665002,28.9550042 187.089997,29.674997 187.63,30.285 C188.170003,30.8950031 188.804996,31.3699983 189.535,31.71 C190.265004,32.0500017 191.049996,32.22 191.89,32.22 C192.850005,32.22 193.699996,32.020002 194.44,31.62 C195.180004,31.219998 195.789998,30.6600036 196.27,29.94 L200.17,32.85 C199.269995,34.1100063 198.130007,35.039997 196.75,35.64 C195.369993,36.240003 193.950007,36.54 192.49,36.54 C190.829992,36.54 189.300007,36.2800026 187.9,35.76 C186.499993,35.2399974 185.290005,34.4950049 184.27,33.525 C183.249995,32.5549952 182.455003,31.3800069 181.885,30 C181.314997,28.6199931 181.03,27.0800085 181.03,25.38 C181.03,23.6799915 181.314997,22.1400069 181.885,20.76 C182.455003,19.3799931 183.249995,18.2050049 184.27,17.235 C185.290005,16.2649952 186.499993,15.5200026 187.9,15 C189.300007,14.4799974 190.829992,14.22 192.49,14.22 C193.090003,14.22 193.714997,14.2749995 194.365,14.385 C195.015003,14.4950006 195.654997,14.6699988 196.285,14.91 C196.915003,15.1500012 197.519997,15.469998 198.1,15.87 C198.680003,16.270002 199.199998,16.7599971 199.66,17.34 L196.06,20.28 Z M211.3,34.17 L211.24,34.17 C210.739997,34.9500039 210.075004,35.5099983 209.245,35.85 C208.414996,36.1900017 207.540005,36.36 206.62,36.36 C205.939997,36.36 205.285003,36.265001 204.655,36.075 C204.024997,35.8849991 203.470002,35.6000019 202.99,35.22 C202.509998,34.8399981 202.130001,34.3700028 201.85,33.81 C201.569999,33.2499972 201.43,32.6000037 201.43,31.86 C201.43,31.0199958 201.584998,30.3100029 201.895,29.73 C202.205002,29.1499971 202.624997,28.6700019 203.155,28.29 C203.685003,27.9099981 204.289997,27.6150011 204.97,27.405 C205.650003,27.194999 206.354996,27.0400005 207.085,26.94 C207.815004,26.8399995 208.544996,26.7800001 209.275,26.76 C210.005004,26.7399999 210.679997,26.73 211.3,26.73 C211.3,25.929996 211.015003,25.2950024 210.445,24.825 C209.874997,24.3549977 209.200004,24.12 208.42,24.12 C207.679996,24.12 207.005003,24.2749985 206.395,24.585 C205.784997,24.8950016 205.240002,25.3199973 204.76,25.86 L202.36,23.4 C203.200004,22.6199961 204.179994,22.035002 205.3,21.645 C206.420006,21.2549981 207.579994,21.06 208.78,21.06 C210.100007,21.06 211.184996,21.2249984 212.035,21.555 C212.885004,21.8850017 213.564997,22.3699968 214.075,23.01 C214.585003,23.6500032 214.939999,24.4349954 215.14,25.365 C215.340001,26.2950047 215.44,27.3699939 215.44,28.59 L215.44,36 L211.3,36 L211.3,34.17 Z M210.19,29.61 C209.849998,29.61 209.425003,29.6249999 208.915,29.655 C208.404997,29.6850002 207.915002,29.7699993 207.445,29.91 C206.974998,30.0500007 206.575002,30.2599986 206.245,30.54 C205.914998,30.8200014 205.75,31.2099975 205.75,31.71 C205.75,32.2500027 205.979998,32.6499987 206.44,32.91 C206.900002,33.1700013 207.379997,33.3 207.88,33.3 C208.320002,33.3 208.744998,33.2400006 209.155,33.12 C209.565002,32.9999994 209.929998,32.8300011 210.25,32.61 C210.570002,32.3899989 210.824999,32.1100017 211.015,31.77 C211.205001,31.4299983 211.3,31.0300023 211.3,30.57 L211.3,29.61 L210.19,29.61 Z M226.51,25.71 C225.849997,24.8899959 224.980005,24.48 223.9,24.48 C223.519998,24.48 223.150002,24.5699991 222.79,24.75 C222.429998,24.9300009 222.25,25.2399978 222.25,25.68 C222.25,26.0400018 222.434998,26.3049992 222.805,26.475 C223.175002,26.6450009 223.644997,26.7949994 224.215,26.925 C224.785003,27.0550007 225.394997,27.1949993 226.045,27.345 C226.695003,27.4950008 227.304997,27.7299984 227.875,28.05 C228.445003,28.3700016 228.914998,28.8049973 229.285,29.355 C229.655002,29.9050028 229.84,30.6399954 229.84,31.56 C229.84,32.5000047 229.635002,33.274997 229.225,33.885 C228.814998,34.4950031 228.290003,34.9849982 227.65,35.355 C227.009997,35.7250019 226.290004,35.9849993 225.49,36.135 C224.689996,36.2850008 223.900004,36.36 223.12,36.36 C222.099995,36.36 221.070005,36.2150015 220.03,35.925 C218.989995,35.6349986 218.110004,35.1200037 217.39,34.38 L220.12,31.35 C220.540002,31.8700026 221.004997,32.2649987 221.515,32.535 C222.025003,32.8050014 222.619997,32.94 223.3,32.94 C223.820003,32.94 224.289998,32.8650008 224.71,32.715 C225.130002,32.5649993 225.34,32.290002 225.34,31.89 C225.34,31.5099981 225.155002,31.225001 224.785,31.035 C224.414998,30.8449991 223.945003,30.6850007 223.375,30.555 C222.804997,30.4249994 222.195003,30.2850008 221.545,30.135 C220.894997,29.9849993 220.285003,29.7600015 219.715,29.46 C219.144997,29.1599985 218.675002,28.7350028 218.305,28.185 C217.934998,27.6349973 217.75,26.9000046 217.75,25.98 C217.75,25.1199957 217.924998,24.3800031 218.275,23.76 C218.625002,23.1399969 219.084997,22.630002 219.655,22.23 C220.225003,21.829998 220.879996,21.535001 221.62,21.345 C222.360004,21.1549991 223.109996,21.06 223.87,21.06 C224.830005,21.06 225.799995,21.1999986 226.78,21.48 C227.760005,21.7600014 228.589997,22.2599964 229.27,22.98 L226.51,25.71 Z M242.08,25.02 L238.12,25.02 L238.12,29.88 C238.12,30.280002 238.14,30.6449984 238.18,30.975 C238.22,31.3050017 238.309999,31.5899988 238.45,31.83 C238.590001,32.0700012 238.804999,32.2549994 239.095,32.385 C239.385001,32.5150007 239.769998,32.58 240.25,32.58 C240.490001,32.58 240.804998,32.5550003 241.195,32.505 C241.585002,32.4549998 241.879999,32.3400009 242.08,32.16 L242.08,35.91 C241.579997,36.0900009 241.060003,36.2099997 240.52,36.27 C239.979997,36.3300003 239.450003,36.36 238.93,36.36 C238.169996,36.36 237.470003,36.2800008 236.83,36.12 C236.189997,35.9599992 235.630002,35.7050018 235.15,35.355 C234.669998,35.0049983 234.295001,34.5500028 234.025,33.99 C233.754999,33.4299972 233.62,32.750004 233.62,31.95 L233.62,25.02 L230.74,25.02 L230.74,21.42 L233.62,21.42 L233.62,17.1 L238.12,17.1 L238.12,21.42 L242.08,21.42 L242.08,25.02 Z M252.61,25.71 C251.949997,24.8899959 251.080005,24.48 250,24.48 C249.619998,24.48 249.250002,24.5699991 248.89,24.75 C248.529998,24.9300009 248.35,25.2399978 248.35,25.68 C248.35,26.0400018 248.534998,26.3049992 248.905,26.475 C249.275002,26.6450009 249.744997,26.7949994 250.315,26.925 C250.885003,27.0550007 251.494997,27.1949993 252.145,27.345 C252.795003,27.4950008 253.404997,27.7299984 253.975,28.05 C254.545003,28.3700016 255.014998,28.8049973 255.385,29.355 C255.755002,29.9050028 255.94,30.6399954 255.94,31.56 C255.94,32.5000047 255.735002,33.274997 255.325,33.885 C254.914998,34.4950031 254.390003,34.9849982 253.75,35.355 C253.109997,35.7250019 252.390004,35.9849993 251.59,36.135 C250.789996,36.2850008 250.000004,36.36 249.22,36.36 C248.199995,36.36 247.170005,36.2150015 246.13,35.925 C245.089995,35.6349986 244.210004,35.1200037 243.49,34.38 L246.22,31.35 C246.640002,31.8700026 247.104997,32.2649987 247.615,32.535 C248.125003,32.8050014 248.719997,32.94 249.4,32.94 C249.920003,32.94 250.389998,32.8650008 250.81,32.715 C251.230002,32.5649993 251.44,32.290002 251.44,31.89 C251.44,31.5099981 251.255002,31.225001 250.885,31.035 C250.514998,30.8449991 250.045003,30.6850007 249.475,30.555 C248.904997,30.4249994 248.295003,30.2850008 247.645,30.135 C246.994997,29.9849993 246.385003,29.7600015 245.815,29.46 C245.244997,29.1599985 244.775002,28.7350028 244.405,28.185 C244.034998,27.6349973 243.85,26.9000046 243.85,25.98 C243.85,25.1199957 244.024998,24.3800031 244.375,23.76 C244.725002,23.1399969 245.184997,22.630002 245.755,22.23 C246.325003,21.829998 246.979996,21.535001 247.72,21.345 C248.460004,21.1549991 249.209996,21.06 249.97,21.06 C250.930005,21.06 251.899995,21.1999986 252.88,21.48 C253.860005,21.7600014 254.689997,22.2599964 255.37,22.98 L252.61,25.71 Z" id="SketchCasts" fill="#6B93A2"></path>
            </g>
        </g>
    </g>
</svg>