<?xml version="1.0" encoding="UTF-8" standalone="no"?>
<svg width="190px" height="40px" viewBox="0 0 190 40" version="1.1" xmlns="http://www.w3.org/2000/svg" xmlns:xlink="http://www.w3.org/1999/xlink" xmlns:sketch="http://www.bohemiancoding.com/sketch/ns">
    <title>long-button</title>
    <defs></defs>
    <g id="Exporting" stroke="none" stroke-width="1" fill="none" fill-rule="evenodd" sketch:type="MSPage">
        <path d="M176.054333,0 C180.07,0 182.077333,0 184.239,0.683333333 C186.599,1.54233333 188.457667,3.401 189.316667,5.761 C190,7.92233333 190,9.93033333 190,13.9456667 L190,26.0543333 C190,30.07 190,32.0773333 189.316667,34.239 C188.457667,36.599 186.599,38.4576667 184.239,39.3163333 C182.077333,40 180.07,40 176.054333,40 L13.9456667,40 C9.93,40 7.92233333,40 5.761,39.3163333 C3.401,38.4576667 1.54233333,36.599 0.683333333,34.239 C0,32.0773333 0,30.07 0,26.0543333 L0,13.9456667 C0,9.93033333 0,7.92233333 0.683333333,5.761 C1.54233333,3.401 3.401,1.54233333 5.761,0.683333333 C7.92233333,0 9.93,0 13.9456667,0 L176.054333,0 Z" id="long-button" fill="#000000" sketch:type="MSShapeGroup"></path>
    </g>
</svg>